ply
format ascii 1.0
Created by Open Asset Import Library - http://assimp.sf.net (v3.0.1262)
element vertex 480
property float x
property float y
property float z
property float nx
property float ny
property float nz
element face 160
property list uint uint vertex_indices
end_header
14.9721 -2.70055 -0.176654 0.603393 0.650165 0.461739
6.92308 5.45126 -1.13677 0.603393 0.650165 0.461739
11.6918 0.374592 -0.22012 0.603393 0.650165 0.461739
12.6978 -9.91125 -4.35544 -0.946655 0.0326952 -0.320586
11.7792 -9.46654 -1.59764 -0.946655 0.0326952 -0.320586
13.5359 -1.89447 -6.01273 -0.946655 0.0326952 -0.320586
10.1353 0.568691 5.91078 0.761742 0.579161 0.29038
10.5504 0.656485 4.64687 0.761742 0.579161 0.29038
7.25046 4.82435 4.99067 0.761742 0.579161 0.29038
27.2903 1.28267 7.2916 0.0168625 0.610064 0.792172
28.0093 3.11107 5.86822 0.0168625 0.610064 0.792172
7.25046 4.82435 4.99067 0.0168625 0.610064 0.792172
14.9721 -2.70055 -0.176654 0.110164 0.222856 0.968607
15.6174 1.52398 -1.22203 0.110164 0.222856 0.968607
6.92308 5.45126 -1.13677 0.110164 0.222856 0.968607
2.04035 -10.1971 -6.691 -0.385834 -0.546916 0.742977
9.73515 -11.383 -3.56802 -0.385834 -0.546916 0.742977
3.27181 -8.46651 -4.77759 -0.385834 -0.546916 0.742977
12.5152 -3.57211 -2.56236 -0.965767 0.0802111 -0.246698
13.5359 -1.89447 -6.01273 -0.965767 0.0802111 -0.246698
11.7792 -9.46654 -1.59764 -0.965767 0.0802111 -0.246698
14.9721 -2.70055 -0.176654 -0.718122 0.198816 0.666913
12.5152 -3.57211 -2.56236 -0.718122 0.198816 0.666913
11.7792 -9.46654 -1.59764 -0.718122 0.198816 0.666913
12.6978 -9.91125 -4.35544 0.936916 0.212074 0.277871
11.7599 -6.35037 -3.91072 0.936916 0.212074 0.277871
11.7792 -9.46654 -1.59764 0.936916 0.212074 0.277871
4.93676 -1.51127 -4.29002 0.965118 -0.16307 -0.20483
4.12303 -5.19182 -5.19399 0.965118 -0.16307 -0.20483
4.84081 1.43771 -7.08989 0.965118 -0.16307 -0.20483
3.09443 -1.37109 0.399824 0.226971 -0.971701 0.0654353
10.5504 0.656485 4.64687 0.226971 -0.971701 0.0654353
0.799709 -1.62913 4.52747 0.226971 -0.971701 0.0654353
-18.0139 -3.15177 14.6873 0.226296 0.48426 0.845152
-11.4354 -1.16227 11.7859 0.226296 0.48426 0.845152
-17.9507 3.14044 11.065 0.226296 0.48426 0.845152
-12.3842 2.07958 9.97455 -0.169075 0.449508 0.877129
-5.60002 -2.78028 13.7728 -0.169075 0.449508 0.877129
0.480323 0.500276 13.2637 -0.169075 0.449508 0.877129
-8.48083 -9.74504 -4.30206 -0.114529 -0.938099 -0.326884
-0.927927 -8.9088 -9.3482 -0.114529 -0.938099 -0.326884
2.04035 -10.1971 -6.691 -0.114529 -0.938099 -0.326884
4.7863 4.6081 9.48911 0.282625 0.51501 0.809251
3.93108 2.20478 11.3173 0.282625 0.51501 0.809251
6.1248 2.64096 10.2735 0.282625 0.51501 0.809251
7.25046 4.82435 4.99067 0.321687 0.834239 0.447843
4.2162 7.27764 2.60024 0.321687 0.834239 0.447843
1.81035 6.36092 6.03601 0.321687 0.834239 0.447843
7.06515 -0.722175 10.5848 0.390146 0.192414 0.900424
6.1248 2.64096 10.2735 0.390146 0.192414 0.900424
3.93108 2.20478 11.3173 0.390146 0.192414 0.900424
0.480323 0.500276 13.2637 -0.237688 0.493563 0.8366
17.0114 -1.13501 18.9251 -0.237688 0.493563 0.8366
17.4407 1.25928 17.6345 -0.237688 0.493563 0.8366
-13.7645 -6.73941 10.2911 -0.176054 -0.419904 0.890329
-10.1451 -8.64236 10.1094 -0.176054 -0.419904 0.890329
-5.60002 -2.78028 13.7728 -0.176054 -0.419904 0.890329
17.4407 1.25928 17.6345 -0.160759 0.866049 0.473409
3.93108 2.20478 11.3173 -0.160759 0.866049 0.473409
0.480323 0.500276 13.2637 -0.160759 0.866049 0.473409
28.0093 3.11107 5.86822 0.0625093 0.935503 0.347745
9.88495 5.79482 1.90635 0.0625093 0.935503 0.347745
7.25046 4.82435 4.99067 0.0625093 0.935503 0.347745
-8.55292 -8.06973 4.60612 0.120645 -0.876351 0.46632
-8.06031 -10.6495 -0.369387 0.120645 -0.876351 0.46632
-2.41987 -9.54361 0.249542 0.120645 -0.876351 0.46632
-11.4354 -1.16227 11.7859 0.468775 -0.406021 0.784472
-18.0139 -3.15177 14.6873 0.468775 -0.406021 0.784472
-13.7645 -6.73941 10.2911 0.468775 -0.406021 0.784472
-13.7072 -7.27977 0.38541 -0.0545478 -0.991402 -0.118941
-8.55292 -8.06973 4.60612 -0.0545478 -0.991402 -0.118941
-10.1451 -8.64236 10.1094 -0.0545478 -0.991402 -0.118941
27.2903 1.28267 7.2916 -0.128144 -0.402515 0.9064
10.5504 0.656485 4.64687 -0.128144 -0.402515 0.9064
13.149 -0.558605 4.47465 -0.128144 -0.402515 0.9064
-11.5996 4.37091 4.31063 0.0550315 0.959502 -0.276273
-17.7837 3.35524 -0.448641 0.0550315 0.959502 -0.276273
-17.8679 4.78035 4.48403 0.0550315 0.959502 -0.276273
-11.5996 4.37091 4.31063 0.0812934 0.94793 -0.307928
-12.6832 2.46351 -1.84722 0.0812934 0.94793 -0.307928
-17.7837 3.35524 -0.448641 0.0812934 0.94793 -0.307928
-17.9507 3.14044 11.065 0.245812 0.886257 0.392587
-12.3842 2.07958 9.97455 0.245812 0.886257 0.392587
-11.5996 4.37091 4.31063 0.245812 0.886257 0.392587
11.7792 -9.46654 -1.59764 -0.3221 0.201354 0.925045
4.12303 -5.19182 -5.19399 -0.3221 0.201354 0.925045
3.27181 -8.46651 -4.77759 -0.3221 0.201354 0.925045
1.02128 6.68555 -2.69389 -0.299424 0.925022 -0.233835
-12.6832 2.46351 -1.84722 -0.299424 0.925022 -0.233835
-11.5996 4.37091 4.31063 -0.299424 0.925022 -0.233835
1.02128 6.68555 -2.69389 0.263454 0.928186 -0.262798
4.2162 7.27764 2.60024 0.263454 0.928186 -0.262798
6.92308 5.45126 -1.13677 0.263454 0.928186 -0.262798
6.04212 5.87788 -5.40141 0.189436 0.980124 0.0589165
1.02128 6.68555 -2.69389 0.189436 0.980124 0.0589165
6.92308 5.45126 -1.13677 0.189436 0.980124 0.0589165
9.88495 5.79482 1.90635 0.276092 0.823836 0.495043
4.2162 7.27764 2.60024 0.276092 0.823836 0.495043
7.25046 4.82435 4.99067 0.276092 0.823836 0.495043
6.92308 5.45126 -1.13677 0.205829 0.929745 -0.305301
4.2162 7.27764 2.60024 0.205829 0.929745 -0.305301
9.88495 5.79482 1.90635 0.205829 0.929745 -0.305301
-0.927927 -8.9088 -9.3482 -0.432586 -0.219338 -0.874506
-12.7843 -5.56231 -4.32265 -0.432586 -0.219338 -0.874506
-1.79508 -5.10342 -9.87369 -0.432586 -0.219338 -0.874506
18.3061 -0.35444 15.654 0.247018 -0.96007 -0.131328
17.0114 -1.13501 18.9251 0.247018 -0.96007 -0.131328
8.16556 -2.53434 12.5165 0.247018 -0.96007 -0.131328
-13.7072 -7.27977 0.38541 -0.64658 -0.667058 -0.370091
-12.7843 -5.56231 -4.32265 -0.64658 -0.667058 -0.370091
-8.48083 -9.74504 -4.30206 -0.64658 -0.667058 -0.370091
18.3061 -0.35444 15.654 0.299416 0.799552 -0.52064
3.93108 2.20478 11.3173 0.299416 0.799552 -0.52064
17.4407 1.25928 17.6345 0.299416 0.799552 -0.52064
7.25046 4.82435 4.99067 -0.145902 -0.195514 0.969787
10.5504 0.656485 4.64687 -0.145902 -0.195514 0.969787
27.2903 1.28267 7.2916 -0.145902 -0.195514 0.969787
-12.6832 2.46351 -1.84722 -0.144164 0.507641 -0.849422
-17.786 -1.59881 -3.40895 -0.144164 0.507641 -0.849422
-17.7837 3.35524 -0.448641 -0.144164 0.507641 -0.849422
-17.786 -1.59881 -3.40895 -0.230912 0.588057 -0.775157
-12.6832 2.46351 -1.84722 -0.230912 0.588057 -0.775157
-11.6191 -0.793641 -4.63519 -0.230912 0.588057 -0.775157
-2.43588 2.14031 -7.90833 -0.428263 0.502788 -0.750863
-11.6191 -0.793641 -4.63519 -0.428263 0.502788 -0.750863
-12.6832 2.46351 -1.84722 -0.428263 0.502788 -0.750863
10.1353 0.568691 5.91078 0.878298 -0.400862 0.260581
8.9221 -0.012527 9.10594 0.878298 -0.400862 0.260581
10.5504 0.656485 4.64687 0.878298 -0.400862 0.260581
14.9721 -2.70055 -0.176654 0.178262 -0.282102 0.942678
11.7792 -9.46654 -1.59764 0.178262 -0.282102 0.942678
17.2273 -6.17282 -1.64222 0.178262 -0.282102 0.942678
24.4119 3.79457 12.4743 -0.0764317 -0.467983 0.880426
6.1248 2.64096 10.2735 -0.0764317 -0.467983 0.880426
8.9221 -0.012527 9.10594 -0.0764317 -0.467983 0.880426
-10.1451 -8.64236 10.1094 -0.463085 -0.88514 0.0456048
-13.7645 -6.73941 10.2911 -0.463085 -0.88514 0.0456048
-13.7072 -7.27977 0.38541 -0.463085 -0.88514 0.0456048
-2.43588 2.14031 -7.90833 -0.1817 0.797776 -0.574925
1.02128 6.68555 -2.69389 -0.1817 0.797776 -0.574925
6.04212 5.87788 -5.40141 -0.1817 0.797776 -0.574925
-2.18928 -1.41298 -9.11558 0.136756 0.327168 -0.935018
-2.43588 2.14031 -7.90833 0.136756 0.327168 -0.935018
4.84081 1.43771 -7.08989 0.136756 0.327168 -0.935018
-2.18928 -1.41298 -9.11558 0.288427 0.222136 -0.931378
5.05132 -4.27615 -7.5562 0.288427 0.222136 -0.931378
-1.79508 -5.10342 -9.87369 0.288427 0.222136 -0.931378
5.05132 -4.27615 -7.5562 0.249072 0.866012 0.433574
-2.18928 -1.41298 -9.11558 0.249072 0.866012 0.433574
4.12303 -5.19182 -5.19399 0.249072 0.866012 0.433574
13.149 -0.558605 4.47465 0.049439 -0.976566 -0.20946
11.6918 0.374592 -0.22012 0.049439 -0.976566 -0.20946
27.9184 0.128895 4.75536 0.049439 -0.976566 -0.20946
-5.60002 -2.78028 13.7728 0.00022593 0.15296 0.988232
3.54199 -3.03667 13.8104 0.00022593 0.15296 0.988232
0.480323 0.500276 13.2637 0.00022593 0.15296 0.988232
7.977 -6.84858 -9.66135 0.451048 0.813471 -0.36718
5.05132 -4.27615 -7.5562 0.451048 0.813471 -0.36718
11.7599 -6.35037 -3.91072 0.451048 0.813471 -0.36718
-12.7843 -5.56231 -4.32265 -0.105003 -0.927447 -0.358909
-13.7072 -7.27977 0.38541 -0.105003 -0.927447 -0.358909
-17.8111 -6.62245 -0.112514 -0.105003 -0.927447 -0.358909
6.92308 5.45126 -1.13677 0.238225 0.911681 -0.334793
9.88495 5.79482 1.90635 0.238225 0.911681 -0.334793
23.985 2.13424 1.97118 0.238225 0.911681 -0.334793
25.5124 2.82327 10.0481 0.173606 -0.978419 -0.11206
8.9221 -0.012527 9.10594 0.173606 -0.978419 -0.11206
10.1353 0.568691 5.91078 0.173606 -0.978419 -0.11206
23.985 2.13424 1.97118 0.152056 0.571416 -0.806451
9.88495 5.79482 1.90635 0.152056 0.571416 -0.806451
27.8736 3.18031 3.44558 0.152056 0.571416 -0.806451
7.25046 4.82435 4.99067 0.188803 -0.0835618 -0.978453
25.0303 4.63201 8.43791 0.188803 -0.0835618 -0.978453
10.1353 0.568691 5.91078 0.188803 -0.0835618 -0.978453
-13.7645 -6.73941 10.2911 -0.164175 -0.985018 0.0527828
-17.8111 -6.62245 -0.112514 -0.164175 -0.985018 0.0527828
-13.7072 -7.27977 0.38541 -0.164175 -0.985018 0.0527828
3.54199 -3.03667 13.8104 0.121397 -0.991398 0.0489088
8.16556 -2.53434 12.5165 0.121397 -0.991398 0.0489088
17.0114 -1.13501 18.9251 0.121397 -0.991398 0.0489088
-1.79508 -5.10342 -9.87369 -0.451998 0.0520747 -0.890498
-12.7843 -5.56231 -4.32265 -0.451998 0.0520747 -0.890498
-11.6191 -0.793641 -4.63519 -0.451998 0.0520747 -0.890498
9.36032 -1.60552 -3.46531 -0.516478 -0.514139 0.684771
12.5152 -3.57211 -2.56236 -0.516478 -0.514139 0.684771
11.6918 0.374592 -0.22012 -0.516478 -0.514139 0.684771
-2.18928 -1.41298 -9.11558 0.372325 -0.292228 -0.880896
4.84081 1.43771 -7.08989 0.372325 -0.292228 -0.880896
4.12303 -5.19182 -5.19399 0.372325 -0.292228 -0.880896
4.84081 1.43771 -7.08989 0.136331 0.319683 -0.937665
-2.43588 2.14031 -7.90833 0.136331 0.319683 -0.937665
6.04212 5.87788 -5.40141 0.136331 0.319683 -0.937665
11.7599 -6.35037 -3.91072 0.0746745 0.919557 0.385795
5.05132 -4.27615 -7.5562 0.0746745 0.919557 0.385795
4.12303 -5.19182 -5.19399 0.0746745 0.919557 0.385795
7.977 -6.84858 -9.66135 0.693965 -0.150246 -0.704158
12.6978 -9.91125 -4.35544 0.693965 -0.150246 -0.704158
7.31355 -10.5139 -9.53312 0.693965 -0.150246 -0.704158
13.4389 1.26493 -6.55184 0.0582604 -0.166181 -0.984373
13.5359 -1.89447 -6.01273 0.0582604 -0.166181 -0.984373
4.84081 1.43771 -7.08989 0.0582604 -0.166181 -0.984373
12.6978 -9.91125 -4.35544 0.791688 0.27656 -0.544743
7.977 -6.84858 -9.66135 0.791688 0.27656 -0.544743
11.7599 -6.35037 -3.91072 0.791688 0.27656 -0.544743
9.36032 -1.60552 -3.46531 -0.354962 -0.795172 -0.491633
13.5359 -1.89447 -6.01273 -0.354962 -0.795172 -0.491633
12.5152 -3.57211 -2.56236 -0.354962 -0.795172 -0.491633
16.4737 -6.04485 -5.14414 0.00307633 -0.202754 -0.979225
12.6978 -9.91125 -4.35544 0.00307633 -0.202754 -0.979225
13.5359 -1.89447 -6.01273 0.00307633 -0.202754 -0.979225
16.4737 -6.04485 -5.14414 0.0561824 -0.166263 -0.98448
13.5359 -1.89447 -6.01273 0.0561824 -0.166263 -0.98448
13.4389 1.26493 -6.55184 0.0561824 -0.166263 -0.98448
23.985 2.13424 1.97118 0.177055 -0.0113814 -0.984135
11.6918 0.374592 -0.22012 0.177055 -0.0113814 -0.984135
6.92308 5.45126 -1.13677 0.177055 -0.0113814 -0.984135
11.6918 0.374592 -0.22012 0.494492 -0.853302 0.165391
10.5504 0.656485 4.64687 0.494492 -0.853302 0.165391
9.36032 -1.60552 -3.46531 0.494492 -0.853302 0.165391
27.8736 3.18031 3.44558 0.998376 -0.00945734 -0.0561685
28.0093 3.11107 5.86822 0.998376 -0.00945734 -0.0561685
27.9184 0.128895 4.75536 0.998376 -0.00945734 -0.0561685
4.93676 -1.51127 -4.29002 0.120069 -0.681496 -0.721905
4.84081 1.43771 -7.08989 0.120069 -0.681496 -0.721905
9.36032 -1.60552 -3.46531 0.120069 -0.681496 -0.721905
4.84081 1.43771 -7.08989 -0.290509 -0.879734 -0.376394
13.5359 -1.89447 -6.01273 -0.290509 -0.879734 -0.376394
9.36032 -1.60552 -3.46531 -0.290509 -0.879734 -0.376394
12.6978 -9.91125 -4.35544 0.68664 -0.705979 -0.173551
16.4737 -6.04485 -5.14414 0.68664 -0.705979 -0.173551
17.2273 -6.17282 -1.64222 0.68664 -0.705979 -0.173551
4.84081 1.43771 -7.08989 0.065541 0.339135 -0.938452
6.04212 5.87788 -5.40141 0.065541 0.339135 -0.938452
13.4389 1.26493 -6.55184 0.065541 0.339135 -0.938452
3.27181 -8.46651 -4.77759 0.639168 -0.442832 0.62878
3.09443 -1.37109 0.399824 0.639168 -0.442832 0.62878
-2.41987 -9.54361 0.249542 0.639168 -0.442832 0.62878
11.7792 -9.46654 -1.59764 -0.358158 -0.455773 0.814858
3.27181 -8.46651 -4.77759 -0.358158 -0.455773 0.814858
9.73515 -11.383 -3.56802 -0.358158 -0.455773 0.814858
7.31355 -10.5139 -9.53312 -0.0509879 -0.148008 -0.987671
-0.927927 -8.9088 -9.3482 -0.0509879 -0.148008 -0.987671
-1.79508 -5.10342 -9.87369 -0.0509879 -0.148008 -0.987671
16.2377 1.46338 -4.17191 0.961498 0.190281 0.198281
15.6174 1.52398 -1.22203 0.961498 0.190281 0.198281
17.2273 -6.17282 -1.64222 0.961498 0.190281 0.198281
17.2273 -6.17282 -1.64222 0.638038 0.0917137 0.764524
15.6174 1.52398 -1.22203 0.638038 0.0917137 0.764524
14.9721 -2.70055 -0.176654 0.638038 0.0917137 0.764524
24.4119 3.79457 12.4743 -0.100576 0.568868 0.816256
24.9314 5.90303 11.0688 -0.100576 0.568868 0.816256
4.7863 4.6081 9.48911 -0.100576 0.568868 0.816256
1.81035 6.36092 6.03601 -0.181211 0.92014 0.347139
-11.5996 4.37091 4.31063 -0.181211 0.92014 0.347139
-12.3842 2.07958 9.97455 -0.181211 0.92014 0.347139
15.6174 1.52398 -1.22203 0.390117 0.918596 0.0631652
16.2377 1.46338 -4.17191 0.390117 0.918596 0.0631652
6.04212 5.87788 -5.40141 0.390117 0.918596 0.0631652
18.3061 -0.35444 15.654 0.329585 0.545715 -0.770434
7.06515 -0.722175 10.5848 0.329585 0.545715 -0.770434
3.93108 2.20478 11.3173 0.329585 0.545715 -0.770434
24.9314 5.90303 11.0688 -0.0651042 0.997803 0.0123051
7.25046 4.82435 4.99067 -0.0651042 0.997803 0.0123051
4.7863 4.6081 9.48911 -0.0651042 0.997803 0.0123051
-12.3842 2.07958 9.97455 -0.109636 0.844996 0.523414
4.7863 4.6081 9.48911 -0.109636 0.844996 0.523414
1.81035 6.36092 6.03601 -0.109636 0.844996 0.523414
15.6174 1.52398 -1.22203 0.411699 0.9113 0.00611797
6.04212 5.87788 -5.40141 0.411699 0.9113 0.00611797
6.92308 5.45126 -1.13677 0.411699 0.9113 0.00611797
-17.9507 3.14044 11.065 0.259051 0.527787 0.808908
-11.4354 -1.16227 11.7859 0.259051 0.527787 0.808908
-12.3842 2.07958 9.97455 0.259051 0.527787 0.808908
1.02128 6.68555 -2.69389 -0.280908 0.807936 -0.518006
-2.43588 2.14031 -7.90833 -0.280908 0.807936 -0.518006
-12.6832 2.46351 -1.84722 -0.280908 0.807936 -0.518006
-1.79508 -5.10342 -9.87369 0.143217 0.719237 -0.679843
5.05132 -4.27615 -7.5562 0.143217 0.719237 -0.679843
7.977 -6.84858 -9.66135 0.143217 0.719237 -0.679843
8.9221 -0.012527 9.10594 0.434232 -0.744178 -0.507584
0.320291 -5.87711 10.3454 0.434232 -0.744178 -0.507584
0.799709 -1.62913 4.52747 0.434232 -0.744178 -0.507584
4.7863 4.6081 9.48911 -0.132311 0.288161 0.948397
6.1248 2.64096 10.2735 -0.132311 0.288161 0.948397
24.4119 3.79457 12.4743 -0.132311 0.288161 0.948397
-11.6191 -0.793641 -4.63519 -0.417425 0.139859 -0.897884
-2.18928 -1.41298 -9.11558 -0.417425 0.139859 -0.897884
-1.79508 -5.10342 -9.87369 -0.417425 0.139859 -0.897884
-2.43588 2.14031 -7.90833 -0.398672 0.2701 -0.876417
-2.18928 -1.41298 -9.11558 -0.398672 0.2701 -0.876417
-11.6191 -0.793641 -4.63519 -0.398672 0.2701 -0.876417
-8.55292 -8.06973 4.60612 0.549739 -0.795171 0.255911
3.09443 -1.37109 0.399824 0.549739 -0.795171 0.255911
0.799709 -1.62913 4.52747 0.549739 -0.795171 0.255911
-17.9372 -7.47849 9.3588 0.192324 -0.977574 -0.0857957
-17.8111 -6.62245 -0.112514 0.192324 -0.977574 -0.0857957
-13.7645 -6.73941 10.2911 0.192324 -0.977574 -0.0857957
3.09443 -1.37109 0.399824 0.487528 -0.343711 0.802608
-8.55292 -8.06973 4.60612 0.487528 -0.343711 0.802608
-2.41987 -9.54361 0.249542 0.487528 -0.343711 0.802608
-8.06031 -10.6495 -0.369387 -0.436064 -0.815832 0.379824
-8.55292 -8.06973 4.60612 -0.436064 -0.815832 0.379824
-13.7072 -7.27977 0.38541 -0.436064 -0.815832 0.379824
0.320291 -5.87711 10.3454 0.21162 -0.8431 0.494367
3.54199 -3.03667 13.8104 0.21162 -0.8431 0.494367
-10.1451 -8.64236 10.1094 0.21162 -0.8431 0.494367
-8.06031 -10.6495 -0.369387 -0.0903855 -0.972639 -0.214019
-8.48083 -9.74504 -4.30206 -0.0903855 -0.972639 -0.214019
2.04035 -10.1971 -6.691 -0.0903855 -0.972639 -0.214019
-0.927927 -8.9088 -9.3482 -0.190568 -0.949917 -0.247673
7.31355 -10.5139 -9.53312 -0.190568 -0.949917 -0.247673
2.04035 -10.1971 -6.691 -0.190568 -0.949917 -0.247673
13.149 -0.558605 4.47465 -0.425683 -0.903625 -0.0474942
10.5504 0.656485 4.64687 -0.425683 -0.903625 -0.0474942
11.6918 0.374592 -0.22012 -0.425683 -0.903625 -0.0474942
2.04035 -10.1971 -6.691 -0.112452 -0.988772 -0.0984084
7.31355 -10.5139 -9.53312 -0.112452 -0.988772 -0.0984084
9.73515 -11.383 -3.56802 -0.112452 -0.988772 -0.0984084
12.6978 -9.91125 -4.35544 0.486828 -0.822265 0.29475
11.7792 -9.46654 -1.59764 0.486828 -0.822265 0.29475
9.73515 -11.383 -3.56802 0.486828 -0.822265 0.29475
-13.7645 -6.73941 10.2911 -0.34653 -0.10511 0.932131
-5.60002 -2.78028 13.7728 -0.34653 -0.10511 0.932131
-11.4354 -1.16227 11.7859 -0.34653 -0.10511 0.932131
17.0114 -1.13501 18.9251 -0.333363 -0.14455 0.931651
0.480323 0.500276 13.2637 -0.333363 -0.14455 0.931651
3.54199 -3.03667 13.8104 -0.333363 -0.14455 0.931651
7.31355 -10.5139 -9.53312 0.366986 -0.887619 -0.278304
12.6978 -9.91125 -4.35544 0.366986 -0.887619 -0.278304
9.73515 -11.383 -3.56802 0.366986 -0.887619 -0.278304
7.06515 -0.722175 10.5848 0.352122 -0.574136 -0.739174
18.3061 -0.35444 15.654 0.352122 -0.574136 -0.739174
8.16556 -2.53434 12.5165 0.352122 -0.574136 -0.739174
11.6918 0.374592 -0.22012 0.22286 -0.614063 -0.757139
23.985 2.13424 1.97118 0.22286 -0.614063 -0.757139
27.9184 0.128895 4.75536 0.22286 -0.614063 -0.757139
0.320291 -5.87711 10.3454 0.255929 -0.966332 -0.0265038
-10.1451 -8.64236 10.1094 0.255929 -0.966332 -0.0265038
-8.55292 -8.06973 4.60612 0.255929 -0.966332 -0.0265038
2.04035 -10.1971 -6.691 0.491052 -0.779475 0.388956
3.27181 -8.46651 -4.77759 0.491052 -0.779475 0.388956
-2.41987 -9.54361 0.249542 0.491052 -0.779475 0.388956
-12.3842 2.07958 9.97455 -0.055524 0.797867 0.600271
0.480323 0.500276 13.2637 -0.055524 0.797867 0.600271
3.93108 2.20478 11.3173 -0.055524 0.797867 0.600271
12.6978 -9.91125 -4.35544 0.495836 -0.816137 0.296762
17.2273 -6.17282 -1.64222 0.495836 -0.816137 0.296762
11.7792 -9.46654 -1.59764 0.495836 -0.816137 0.296762
25.5124 2.82327 10.0481 0.289178 -0.592358 -0.751989
10.1353 0.568691 5.91078 0.289178 -0.592358 -0.751989
25.0303 4.63201 8.43791 0.289178 -0.592358 -0.751989
8.9221 -0.012527 9.10594 0.129851 -0.898783 0.418722
25.5124 2.82327 10.0481 0.129851 -0.898783 0.418722
24.4119 3.79457 12.4743 0.129851 -0.898783 0.418722
7.06515 -0.722175 10.5848 0.602792 -0.792865 0.0894867
3.54199 -3.03667 13.8104 0.602792 -0.792865 0.0894867
0.320291 -5.87711 10.3454 0.602792 -0.792865 0.0894867
8.9221 -0.012527 9.10594 0.562137 -0.751548 0.345221
7.06515 -0.722175 10.5848 0.562137 -0.751548 0.345221
0.320291 -5.87711 10.3454 0.562137 -0.751548 0.345221
-8.48083 -9.74504 -4.30206 -0.453616 -0.470431 -0.756919
-12.7843 -5.56231 -4.32265 -0.453616 -0.470431 -0.756919
-0.927927 -8.9088 -9.3482 -0.453616 -0.470431 -0.756919
-17.7837 3.35524 -0.448641 -0.999701 0.0128795 -0.0207807
-17.786 -1.59881 -3.40895 -0.999701 0.0128795 -0.0207807
-17.8679 4.78035 4.48403 -0.999701 0.0128795 -0.0207807
-17.786 -1.59881 -3.40895 -0.999955 -0.0011864 -0.00941524
-17.8111 -6.62245 -0.112514 -0.999955 -0.0011864 -0.00941524
-17.8679 4.78035 4.48403 -0.999955 -0.0011864 -0.00941524
-17.8111 -6.62245 -0.112514 -0.999909 -0.00121305 -0.0134191
-17.9372 -7.47849 9.3588 -0.999909 -0.00121305 -0.0134191
-18.0139 -3.15177 14.6873 -0.999909 -0.00121305 -0.0134191
-17.8111 -6.62245 -0.112514 -0.999898 0.0019064 -0.0141505
-18.0139 -3.15177 14.6873 -0.999898 0.0019064 -0.0141505
-17.9507 3.14044 11.065 -0.999898 0.0019064 -0.0141505
11.7792 -9.46654 -1.59764 -0.0445124 0.595258 0.802301
11.7599 -6.35037 -3.91072 -0.0445124 0.595258 0.802301
4.12303 -5.19182 -5.19399 -0.0445124 0.595258 0.802301
9.36032 -1.60552 -3.46531 -0.0250311 -0.999486 0.0200423
3.09443 -1.37109 0.399824 -0.0250311 -0.999486 0.0200423
4.93676 -1.51127 -4.29002 -0.0250311 -0.999486 0.0200423
11.6918 0.374592 -0.22012 -0.494465 -0.517574 0.698299
12.5152 -3.57211 -2.56236 -0.494465 -0.517574 0.698299
14.9721 -2.70055 -0.176654 -0.494465 -0.517574 0.698299
-17.8679 4.78035 4.48403 0.0699081 0.967746 0.242032
-17.9507 3.14044 11.065 0.0699081 0.967746 0.242032
-11.5996 4.37091 4.31063 0.0699081 0.967746 0.242032
1.02128 6.68555 -2.69389 -0.180848 0.983511 -0.000855494
-11.5996 4.37091 4.31063 -0.180848 0.983511 -0.000855494
4.2162 7.27764 2.60024 -0.180848 0.983511 -0.000855494
1.81035 6.36092 6.03601 -0.163552 0.9757 0.145807
4.2162 7.27764 2.60024 -0.163552 0.9757 0.145807
-11.5996 4.37091 4.31063 -0.163552 0.9757 0.145807
16.4737 -6.04485 -5.14414 0.976429 0.0576229 -0.208004
16.2377 1.46338 -4.17191 0.976429 0.0576229 -0.208004
17.2273 -6.17282 -1.64222 0.976429 0.0576229 -0.208004
1.81035 6.36092 6.03601 0.302994 0.929419 0.210655
4.7863 4.6081 9.48911 0.302994 0.929419 0.210655
7.25046 4.82435 4.99067 0.302994 0.929419 0.210655
3.27181 -8.46651 -4.77759 0.900861 -0.240962 0.361092
4.93676 -1.51127 -4.29002 0.900861 -0.240962 0.361092
3.09443 -1.37109 0.399824 0.900861 -0.240962 0.361092
-5.60002 -2.78028 13.7728 -0.0180892 -0.519754 0.854124
-10.1451 -8.64236 10.1094 -0.0180892 -0.519754 0.854124
3.54199 -3.03667 13.8104 -0.0180892 -0.519754 0.854124
6.04212 5.87788 -5.40141 0.390996 0.75738 -0.52297
16.2377 1.46338 -4.17191 0.390996 0.75738 -0.52297
13.4389 1.26493 -6.55184 0.390996 0.75738 -0.52297
28.0093 3.11107 5.86822 0.142098 0.989644 0.020329
27.8736 3.18031 3.44558 0.142098 0.989644 0.020329
9.88495 5.79482 1.90635 0.142098 0.989644 0.020329
24.9314 5.90303 11.0688 0.0931364 0.897882 -0.430271
25.0303 4.63201 8.43791 0.0931364 0.897882 -0.430271
7.25046 4.82435 4.99067 0.0931364 0.897882 -0.430271
-11.6191 -0.793641 -4.63519 -0.192836 -0.0171839 -0.98108
-12.7843 -5.56231 -4.32265 -0.192836 -0.0171839 -0.98108
-17.786 -1.59881 -3.40895 -0.192836 -0.0171839 -0.98108
7.06515 -0.722175 10.5848 -0.0999995 -0.753457 -0.649848
8.16556 -2.53434 12.5165 -0.0999995 -0.753457 -0.649848
3.54199 -3.03667 13.8104 -0.0999995 -0.753457 -0.649848
7.977 -6.84858 -9.66135 0.0149834 -0.0376691 -0.999178
7.31355 -10.5139 -9.53312 0.0149834 -0.0376691 -0.999178
-1.79508 -5.10342 -9.87369 0.0149834 -0.0376691 -0.999178
13.4389 1.26493 -6.55184 0.638335 0.118549 -0.760575
16.2377 1.46338 -4.17191 0.638335 0.118549 -0.760575
16.4737 -6.04485 -5.14414 0.638335 0.118549 -0.760575
3.27181 -8.46651 -4.77759 0.965962 -0.23829 0.100674
4.12303 -5.19182 -5.19399 0.965962 -0.23829 0.100674
4.93676 -1.51127 -4.29002 0.965962 -0.23829 0.100674
7.06515 -0.722175 10.5848 0.551571 0.228462 0.802231
8.9221 -0.012527 9.10594 0.551571 0.228462 0.802231
6.1248 2.64096 10.2735 0.551571 0.228462 0.802231
-13.7072 -7.27977 0.38541 -0.521065 -0.842289 -0.137988
-8.48083 -9.74504 -4.30206 -0.521065 -0.842289 -0.137988
-8.06031 -10.6495 -0.369387 -0.521065 -0.842289 -0.137988
2.04035 -10.1971 -6.691 0.167533 -0.965659 0.198583
-2.41987 -9.54361 0.249542 0.167533 -0.965659 0.198583
-8.06031 -10.6495 -0.369387 0.167533 -0.965659 0.198583
24.4119 3.79457 12.4743 0.915935 0.0404719 0.39928
25.5124 2.82327 10.0481 0.915935 0.0404719 0.39928
24.9314 5.90303 11.0688 0.915935 0.0404719 0.39928
27.2903 1.28267 7.2916 0.944444 -0.139781 0.297468
27.9184 0.128895 4.75536 0.944444 -0.139781 0.297468
28.0093 3.11107 5.86822 0.944444 -0.139781 0.297468
27.9184 0.128895 4.75536 0.413327 -0.354037 -0.838939
23.985 2.13424 1.97118 0.413327 -0.354037 -0.838939
27.8736 3.18031 3.44558 0.413327 -0.354037 -0.838939
-17.8111 -6.62245 -0.112514 -0.505644 -0.47155 -0.722471
-17.786 -1.59881 -3.40895 -0.505644 -0.47155 -0.722471
-12.7843 -5.56231 -4.32265 -0.505644 -0.47155 -0.722471
-8.55292 -8.06973 4.60612 0.492822 -0.721582 -0.486257
0.799709 -1.62913 4.52747 0.492822 -0.721582 -0.486257
0.320291 -5.87711 10.3454 0.492822 -0.721582 -0.486257
24.9314 5.90303 11.0688 0.976796 0.204924 -0.0622487
25.5124 2.82327 10.0481 0.976796 0.204924 -0.0622487
25.0303 4.63201 8.43791 0.976796 0.204924 -0.0622487
0.799709 -1.62913 4.52747 0.228499 -0.971547 -0.0623252
10.5504 0.656485 4.64687 0.228499 -0.971547 -0.0623252
8.9221 -0.012527 9.10594 0.228499 -0.971547 -0.0623252
-13.7645 -6.73941 10.2911 -0.00333259 -0.776324 0.630325
-18.0139 -3.15177 14.6873 -0.00333259 -0.776324 0.630325
-17.9372 -7.47849 9.3588 -0.00333259 -0.776324 0.630325
3.09443 -1.37109 0.399824 0.118585 -0.960822 0.250518
9.36032 -1.60552 -3.46531 0.118585 -0.960822 0.250518
10.5504 0.656485 4.64687 0.118585 -0.960822 0.250518
17.0114 -1.13501 18.9251 0.926219 0.0362068 0.375242
18.3061 -0.35444 15.654 0.926219 0.0362068 0.375242
17.4407 1.25928 17.6345 0.926219 0.0362068 0.375242
-12.3842 2.07958 9.97455 -0.177787 0.43983 0.880307
-11.4354 -1.16227 11.7859 -0.177787 0.43983 0.880307
-5.60002 -2.78028 13.7728 -0.177787 0.43983 0.880307
3.93108 2.20478 11.3173 -0.0691103 0.619441 0.781995
4.7863 4.6081 9.48911 -0.0691103 0.619441 0.781995
-12.3842 2.07958 9.97455 -0.0691103 0.619441 0.781995
27.9184 0.128895 4.75536 0.0341973 -0.906487 0.420846
27.2903 1.28267 7.2916 0.0341973 -0.906487 0.420846
13.149 -0.558605 4.47465 0.0341973 -0.906487 0.420846
-17.8111 -6.62245 -0.112514 -0.999921 7.94672e-05 -0.0125551
-17.9507 3.14044 11.065 -0.999921 7.94672e-05 -0.0125551
-17.8679 4.78035 4.48403 -0.999921 7.94672e-05 -0.0125551
3 0 1 2
3 3 4 5
3 6 7 8
3 9 10 11
3 12 13 14
3 15 16 17
3 18 19 20
3 21 22 23
3 24 25 26
3 27 28 29
3 30 31 32
3 33 34 35
3 36 37 38
3 39 40 41
3 42 43 44
3 45 46 47
3 48 49 50
3 51 52 53
3 54 55 56
3 57 58 59
3 60 61 62
3 63 64 65
3 66 67 68
3 69 70 71
3 72 73 74
3 75 76 77
3 78 79 80
3 81 82 83
3 84 85 86
3 87 88 89
3 90 91 92
3 93 94 95
3 96 97 98
3 99 100 101
3 102 103 104
3 105 106 107
3 108 109 110
3 111 112 113
3 114 115 116
3 117 118 119
3 120 121 122
3 123 124 125
3 126 127 128
3 129 130 131
3 132 133 134
3 135 136 137
3 138 139 140
3 141 142 143
3 144 145 146
3 147 148 149
3 150 151 152
3 153 154 155
3 156 157 158
3 159 160 161
3 162 163 164
3 165 166 167
3 168 169 170
3 171 172 173
3 174 175 176
3 177 178 179
3 180 181 182
3 183 184 185
3 186 187 188
3 189 190 191
3 192 193 194
3 195 196 197
3 198 199 200
3 201 202 203
3 204 205 206
3 207 208 209
3 210 211 212
3 213 214 215
3 216 217 218
3 219 220 221
3 222 223 224
3 225 226 227
3 228 229 230
3 231 232 233
3 234 235 236
3 237 238 239
3 240 241 242
3 243 244 245
3 246 247 248
3 249 250 251
3 252 253 254
3 255 256 257
3 258 259 260
3 261 262 263
3 264 265 266
3 267 268 269
3 270 271 272
3 273 274 275
3 276 277 278
3 279 280 281
3 282 283 284
3 285 286 287
3 288 289 290
3 291 292 293
3 294 295 296
3 297 298 299
3 300 301 302
3 303 304 305
3 306 307 308
3 309 310 311
3 312 313 314
3 315 316 317
3 318 319 320
3 321 322 323
3 324 325 326
3 327 328 329
3 330 331 332
3 333 334 335
3 336 337 338
3 339 340 341
3 342 343 344
3 345 346 347
3 348 349 350
3 351 352 353
3 354 355 356
3 357 358 359
3 360 361 362
3 363 364 365
3 366 367 368
3 369 370 371
3 372 373 374
3 375 376 377
3 378 379 380
3 381 382 383
3 384 385 386
3 387 388 389
3 390 391 392
3 393 394 395
3 396 397 398
3 399 400 401
3 402 403 404
3 405 406 407
3 408 409 410
3 411 412 413
3 414 415 416
3 417 418 419
3 420 421 422
3 423 424 425
3 426 427 428
3 429 430 431
3 432 433 434
3 435 436 437
3 438 439 440
3 441 442 443
3 444 445 446
3 447 448 449
3 450 451 452
3 453 454 455
3 456 457 458
3 459 460 461
3 462 463 464
3 465 466 467
3 468 469 470
3 471 472 473
3 474 475 476
3 477 478 479
